<svg width="157" height="56" viewBox="0 0 157 56" fill="none" xmlns="http://www.w3.org/2000/svg">
<g filter="url(#filter0_n_798_699)">
<path d="M17.6817 23H10.5617L10.2417 19.2H9.82172L9.52172 23H2.50172L0.541719 9.18H6.64172L7.16172 15.74H7.58172L8.06172 9.52H12.1017L12.6417 15.74H13.0817L13.5817 9.18H19.6017L17.6817 23ZM27.7706 23V16.66C27.7706 16.5 27.7106 16.3667 27.5906 16.26C27.484 16.14 27.3506 16.08 27.1906 16.08C27.0306 16.08 26.8973 16.14 26.7906 16.26C26.684 16.3667 26.6306 16.5 26.6306 16.66V23H20.9706V8.1H26.9306V10.62L26.7306 12.34C26.784 12.1667 26.8773 11.9933 27.0106 11.82C27.144 11.6467 27.4306 11.4667 27.8706 11.28C28.3106 11.08 28.8506 10.98 29.4906 10.98C30.7973 10.98 31.7773 11.34 32.4306 12.06C33.0973 12.78 33.4306 13.8267 33.4306 15.2V23H27.7706ZM46.8239 15.44L46.7239 17.9L47.2239 17.88V22.42C46.9839 22.62 46.5706 22.8 45.9839 22.96C45.3972 23.12 44.8439 23.2 44.3239 23.2C43.8039 23.2 43.3906 23.1533 43.0839 23.06C42.7772 22.9667 42.5506 22.8667 42.4039 22.76C42.2572 22.64 42.1439 22.5067 42.0639 22.36C41.9439 22.1467 41.8839 21.9667 41.8839 21.82C41.1506 22.74 39.9839 23.2 38.3839 23.2C36.1839 23.2 35.0839 22.2667 35.0839 20.4C35.0839 19.28 35.5106 18.4867 36.3639 18.02C37.2172 17.54 38.7106 17.2533 40.8439 17.16C40.8439 16.6933 40.3306 16.46 39.3039 16.46C38.6106 16.46 37.9439 16.5467 37.3039 16.72C36.6772 16.8933 36.2239 17.0667 35.9439 17.24L35.5039 17.5V12.24C35.6239 12.1467 35.8039 12.0333 36.0439 11.9C36.2839 11.7533 36.8506 11.5667 37.7439 11.34C38.6372 11.1 39.6172 10.98 40.6839 10.98C42.8172 10.98 44.3706 11.34 45.3439 12.06C46.3306 12.78 46.8239 13.9067 46.8239 15.44ZM41.1639 18.62V17.82L40.0239 18.14V18.62C40.0239 18.7933 40.0772 18.9333 40.1839 19.04C40.3039 19.1467 40.4439 19.2 40.6039 19.2C40.7772 19.2 40.9106 19.1467 41.0039 19.04C41.1106 18.9333 41.1639 18.7933 41.1639 18.62ZM55.888 16.76V17.66H57.688V22.38C57.6213 22.4467 57.508 22.5267 57.348 22.62C57.2013 22.7 56.808 22.82 56.168 22.98C55.528 23.1267 54.788 23.2 53.948 23.2C50.8946 23.2 49.368 21.8667 49.368 19.2V16.76H48.588V11.78C49.1613 11.6067 49.668 11.2867 50.108 10.82C50.548 10.3533 50.848 9.93333 51.008 9.56L51.248 8.98H56.268V11.18H57.688V16.76H55.888ZM72.3683 23V16.66C72.3683 16.5 72.3083 16.3667 72.1883 16.26C72.0816 16.14 71.9483 16.08 71.7883 16.08C71.6283 16.08 71.4949 16.14 71.3883 16.26C71.2816 16.3667 71.2283 16.5 71.2283 16.66V23H65.5683V8.1H71.5283V10.62L71.3283 12.34C71.3816 12.1667 71.4749 11.9933 71.6083 11.82C71.7416 11.6467 72.0283 11.4667 72.4683 11.28C72.9083 11.08 73.4483 10.98 74.0883 10.98C75.3949 10.98 76.3749 11.34 77.0283 12.06C77.6949 12.78 78.0283 13.8267 78.0283 15.2V23H72.3683ZM91.4216 15.44L91.3216 17.9L91.8216 17.88V22.42C91.5816 22.62 91.1682 22.8 90.5816 22.96C89.9949 23.12 89.4416 23.2 88.9216 23.2C88.4016 23.2 87.9882 23.1533 87.6816 23.06C87.3749 22.9667 87.1482 22.8667 87.0016 22.76C86.8549 22.64 86.7416 22.5067 86.6616 22.36C86.5416 22.1467 86.4816 21.9667 86.4816 21.82C85.7482 22.74 84.5816 23.2 82.9816 23.2C80.7816 23.2 79.6816 22.2667 79.6816 20.4C79.6816 19.28 80.1082 18.4867 80.9616 18.02C81.8149 17.54 83.3082 17.2533 85.4416 17.16C85.4416 16.6933 84.9282 16.46 83.9016 16.46C83.2082 16.46 82.5416 16.5467 81.9016 16.72C81.2749 16.8933 80.8216 17.0667 80.5416 17.24L80.1016 17.5V12.24C80.2216 12.1467 80.4016 12.0333 80.6416 11.9C80.8816 11.7533 81.4482 11.5667 82.3416 11.34C83.2349 11.1 84.2149 10.98 85.2816 10.98C87.4149 10.98 88.9682 11.34 89.9416 12.06C90.9282 12.78 91.4216 13.9067 91.4216 15.44ZM85.7616 18.62V17.82L84.6216 18.14V18.62C84.6216 18.7933 84.6749 18.9333 84.7816 19.04C84.9016 19.1467 85.0416 19.2 85.2016 19.2C85.3749 19.2 85.5082 19.1467 85.6016 19.04C85.7082 18.9333 85.7616 18.7933 85.7616 18.62ZM98.7959 18.62H99.3159L99.6959 11.18H105.156L103.396 23H94.4159L92.6159 11.18H98.3959L98.7959 18.62ZM106.092 17.12C106.092 15.08 106.552 13.5467 107.472 12.52C108.405 11.4933 109.925 10.98 112.032 10.98C114.138 10.98 115.605 11.4067 116.432 12.26C117.258 13.1133 117.672 14.5133 117.672 16.46L117.572 18H112.052V18.68C112.385 18.76 112.872 18.8 113.512 18.8C114.872 18.8 115.972 18.74 116.812 18.62L117.232 18.56V22.32C117.125 22.3867 116.952 22.4733 116.712 22.58C116.485 22.6733 115.932 22.8 115.052 22.96C114.172 23.12 113.192 23.2 112.112 23.2C109.978 23.2 108.438 22.6933 107.492 21.68C106.558 20.6667 106.092 19.1467 106.092 17.12ZM111.752 16.22V17H112.892V16.22C112.892 16.0467 112.832 15.9067 112.712 15.8C112.605 15.6933 112.465 15.64 112.292 15.64C112.132 15.64 111.998 15.6933 111.892 15.8C111.798 15.9067 111.752 16.0467 111.752 16.22ZM141.649 23H135.129L134.649 18.92H134.209L133.749 23H127.029L125.229 11.18H131.189L131.689 15.74H132.129L132.469 11.54H136.509L136.909 15.74H137.329L137.849 11.18H143.649L141.649 23ZM144.603 17.12C144.603 15.08 145.063 13.5467 145.983 12.52C146.917 11.4933 148.437 10.98 150.543 10.98C152.65 10.98 154.117 11.4067 154.943 12.26C155.77 13.1133 156.183 14.5133 156.183 16.46L156.083 18H150.563V18.68C150.897 18.76 151.383 18.8 152.023 18.8C153.383 18.8 154.483 18.74 155.323 18.62L155.743 18.56V22.32C155.637 22.3867 155.463 22.4733 155.223 22.58C154.997 22.6733 154.443 22.8 153.563 22.96C152.683 23.12 151.703 23.2 150.623 23.2C148.49 23.2 146.95 22.6933 146.003 21.68C145.07 20.6667 144.603 19.1467 144.603 17.12ZM150.263 16.22V17H151.403V16.22C151.403 16.0467 151.343 15.9067 151.223 15.8C151.117 15.6933 150.977 15.64 150.803 15.64C150.643 15.64 150.51 15.6933 150.403 15.8C150.31 15.9067 150.263 16.0467 150.263 16.22ZM29.4658 53H18.0738L17.5618 46.92H16.8898L16.4098 53H5.17775L2.04175 30.888H11.8018L12.6338 41.384H13.3058L14.0738 31.432H20.5378L21.4018 41.384H22.1058L22.9058 30.888H32.5378L29.4658 53ZM52.5245 40.904L52.3645 44.84L53.1645 44.808V52.072C52.7805 52.392 52.1192 52.68 51.1805 52.936C50.2418 53.192 49.3565 53.32 48.5245 53.32C47.6925 53.32 47.0312 53.2453 46.5405 53.096C46.0498 52.9467 45.6872 52.7867 45.4525 52.616C45.2178 52.424 45.0365 52.2107 44.9085 51.976C44.7165 51.6347 44.6205 51.3467 44.6205 51.112C43.4472 52.584 41.5805 53.32 39.0205 53.32C35.5005 53.32 33.7405 51.8267 33.7405 48.84C33.7405 47.048 34.4232 45.7787 35.7885 45.032C37.1538 44.264 39.5432 43.8053 42.9565 43.656C42.9565 42.9093 42.1352 42.536 40.4925 42.536C39.3832 42.536 38.3165 42.6747 37.2925 42.952C36.2898 43.2293 35.5645 43.5067 35.1165 43.784L34.4125 44.2V35.784C34.6045 35.6347 34.8925 35.4533 35.2765 35.24C35.6605 35.0053 36.5672 34.7067 37.9965 34.344C39.4258 33.96 40.9938 33.768 42.7005 33.768C46.1138 33.768 48.5992 34.344 50.1565 35.496C51.7352 36.648 52.5245 38.4507 52.5245 40.904ZM43.4685 45.992V44.712L41.6445 45.224V45.992C41.6445 46.2693 41.7298 46.4933 41.9005 46.664C42.0925 46.8347 42.3165 46.92 42.5725 46.92C42.8498 46.92 43.0632 46.8347 43.2125 46.664C43.3832 46.4933 43.4685 46.2693 43.4685 45.992ZM66.727 43.016V44.456H69.607V52.008C69.5003 52.1147 69.319 52.2427 69.063 52.392C68.8283 52.52 68.199 52.712 67.175 52.968C66.151 53.2027 64.967 53.32 63.623 53.32C58.7377 53.32 56.295 51.1867 56.295 46.92V43.016H55.047V35.048C55.9643 34.7707 56.775 34.2587 57.479 33.512C58.183 32.7653 58.663 32.0933 58.919 31.496L59.303 30.568H67.335V34.088H69.607V43.016H66.727ZM89.1112 52.36C87.7246 53 85.2819 53.32 81.7833 53.32C78.2846 53.32 75.7673 52.52 74.2313 50.92C72.7166 49.32 71.9593 46.8347 71.9593 43.464C71.9593 40.0933 72.8126 37.64 74.5193 36.104C76.2259 34.5467 78.7859 33.768 82.1993 33.768C83.7353 33.768 85.0793 33.8747 86.2313 34.088C87.3833 34.3013 88.1513 34.5147 88.5353 34.728L89.1112 35.048V43.496H82.5513V44.904C82.9353 44.968 83.5859 45 84.5033 45C86.0393 45 87.4153 44.936 88.6313 44.808L89.1112 44.776V52.36ZM102.308 53V42.856C102.308 42.6 102.212 42.3867 102.02 42.216C101.849 42.024 101.636 41.928 101.38 41.928C101.124 41.928 100.911 42.024 100.74 42.216C100.569 42.3867 100.484 42.6 100.484 42.856V53H91.428V29.16H100.964V33.192L100.644 35.944C100.729 35.6667 100.879 35.3893 101.092 35.112C101.305 34.8347 101.764 34.5467 102.468 34.248C103.172 33.928 104.036 33.768 105.06 33.768C107.151 33.768 108.719 34.344 109.764 35.496C110.831 36.648 111.364 38.3227 111.364 40.52V53H102.308ZM113.709 43.592C113.709 40.328 114.445 37.8747 115.917 36.232C117.411 34.5893 119.843 33.768 123.213 33.768C126.584 33.768 128.931 34.4507 130.253 35.816C131.576 37.1813 132.237 39.4213 132.237 42.536L132.077 45H123.245V46.088C123.779 46.216 124.557 46.28 125.581 46.28C127.757 46.28 129.517 46.184 130.861 45.992L131.533 45.896V51.912C131.363 52.0187 131.085 52.1573 130.701 52.328C130.339 52.4773 129.453 52.68 128.045 52.936C126.637 53.192 125.069 53.32 123.341 53.32C119.928 53.32 117.464 52.5093 115.949 50.888C114.456 49.2667 113.709 46.8347 113.709 43.592ZM122.765 42.152V43.4H124.589V42.152C124.589 41.8747 124.493 41.6507 124.301 41.48C124.131 41.3093 123.907 41.224 123.629 41.224C123.373 41.224 123.16 41.3093 122.989 41.48C122.84 41.6507 122.765 41.8747 122.765 42.152ZM154.489 53H146.425L146.105 50.664C146.02 50.8987 145.838 51.1867 145.561 51.528C145.305 51.8693 145.028 52.1573 144.729 52.392C143.94 53.0107 142.926 53.32 141.689 53.32C139.449 53.32 137.7 52.4667 136.441 50.76C135.182 49.0533 134.553 46.6747 134.553 43.624C134.553 40.552 135.193 38.1413 136.473 36.392C137.753 34.6427 139.502 33.768 141.721 33.768C142.404 33.768 143.012 33.8533 143.545 34.024C144.078 34.1733 144.441 34.3227 144.633 34.472L144.921 34.696V29.16H154.489V53ZM143.609 43.304V45.992C143.609 46.2693 143.684 46.4933 143.833 46.664C144.004 46.8347 144.217 46.92 144.473 46.92C144.75 46.92 144.974 46.8347 145.145 46.664C145.337 46.4933 145.433 46.2693 145.433 45.992V43.304C145.433 43.048 145.337 42.8347 145.145 42.664C144.974 42.472 144.761 42.376 144.505 42.376C144.249 42.376 144.036 42.472 143.865 42.664C143.694 42.8347 143.609 43.048 143.609 43.304Z" fill="#FFD333"/>
</g>
<defs>
<filter id="filter0_n_798_699" x="0" y="0" width="157" height="56" filterUnits="userSpaceOnUse" color-interpolation-filters="sRGB">
<feFlood flood-opacity="0" result="BackgroundImageFix"/>
<feBlend mode="normal" in="SourceGraphic" in2="BackgroundImageFix" result="shape"/>
<feTurbulence type="fractalNoise" baseFrequency="1.25 1.25" stitchTiles="stitch" numOctaves="3" result="noise" seed="1678" />
<feColorMatrix in="noise" type="luminanceToAlpha" result="alphaNoise" />
<feComponentTransfer in="alphaNoise" result="coloredNoise1">
<feFuncA type="discrete" tableValues="0 0 0 0 0 0 0 0 0 0 0 0 0 0 1 1 1 1 1 1 1 1 1 1 1 1 1 1 1 1 1 1 1 1 1 0 0 0 0 0 0 0 0 0 0 0 0 0 0 0 0 0 0 0 0 0 0 0 0 0 0 0 0 0 0 0 0 0 0 0 0 0 0 0 0 0 0 0 0 0 0 0 0 0 0 0 0 0 0 0 0 0 0 0 0 0 0 0 0 0 "/>
</feComponentTransfer>
<feComposite operator="in" in2="shape" in="coloredNoise1" result="noise1Clipped" />
<feComponentTransfer in="alphaNoise" result="coloredNoise2">
<feFuncA type="discrete" tableValues="0 0 0 0 0 0 0 0 0 0 0 0 0 0 0 0 0 0 0 0 0 0 0 0 0 0 0 0 0 0 0 0 0 0 0 0 0 0 0 0 0 0 0 0 0 0 0 0 0 0 0 0 0 0 0 0 0 0 0 0 0 0 0 0 0 1 1 1 1 1 1 1 1 1 1 1 1 1 1 1 1 1 1 1 1 1 0 0 0 0 0 0 0 0 0 0 0 0 0 0 "/>
</feComponentTransfer>
<feComposite operator="in" in2="shape" in="coloredNoise2" result="noise2Clipped" />
<feFlood flood-color="rgba(0, 0, 0, 0.25)" result="color1Flood" />
<feComposite operator="in" in2="noise1Clipped" in="color1Flood" result="color1" />
<feFlood flood-color="#0179B3" result="color2Flood" />
<feComposite operator="in" in2="noise2Clipped" in="color2Flood" result="color2" />
<feMerge result="effect1_noise_798_699">
<feMergeNode in="shape" />
<feMergeNode in="color1" />
<feMergeNode in="color2" />
</feMerge>
</filter>
</defs>
</svg>
